<mxfile host="app.diagrams.net" modified="2021-06-04T16:44:53.525Z" agent="5.0 (Windows NT 10.0; Win64; x64) AppleWebKit/537.36 (KHTML, like Gecko) Chrome/91.0.4472.77 Safari/537.36" etag="Re5TEk7sksNLHE9CA4fW" version="14.7.5" type="github">
  <diagram id="doIO3KhxdL-7aAAkdjQE" name="Page-1">
    <mxGraphModel dx="1038" dy="489" grid="1" gridSize="10" guides="1" tooltips="1" connect="1" arrows="1" fold="1" page="1" pageScale="1" pageWidth="827" pageHeight="1169" math="0" shadow="0">
      <root>
        <mxCell id="0" />
        <mxCell id="1" parent="0" />
        <mxCell id="GGz-ecKI_cakVM3Egm1I-21" style="edgeStyle=none;rounded=0;orthogonalLoop=1;jettySize=auto;html=1;" edge="1" parent="1">
          <mxGeometry relative="1" as="geometry">
            <mxPoint x="730" y="170" as="targetPoint" />
            <mxPoint x="60" y="63" as="sourcePoint" />
            <Array as="points">
              <mxPoint x="730" y="63" />
            </Array>
          </mxGeometry>
        </mxCell>
        <mxCell id="GGz-ecKI_cakVM3Egm1I-22" value="Zapnutie páčky systému segway" style="edgeLabel;html=1;align=center;verticalAlign=middle;resizable=0;points=[];" vertex="1" connectable="0" parent="GGz-ecKI_cakVM3Egm1I-21">
          <mxGeometry x="-0.1973" relative="1" as="geometry">
            <mxPoint as="offset" />
          </mxGeometry>
        </mxCell>
        <mxCell id="GGz-ecKI_cakVM3Egm1I-23" style="edgeStyle=none;rounded=0;orthogonalLoop=1;jettySize=auto;html=1;entryX=0.5;entryY=0;entryDx=0;entryDy=0;" edge="1" parent="1" source="GGz-ecKI_cakVM3Egm1I-1" target="GGz-ecKI_cakVM3Egm1I-9">
          <mxGeometry relative="1" as="geometry">
            <Array as="points">
              <mxPoint x="120" y="120" />
              <mxPoint x="400" y="120" />
            </Array>
          </mxGeometry>
        </mxCell>
        <mxCell id="GGz-ecKI_cakVM3Egm1I-24" value="zapnutie servera príkazom v Terminal" style="edgeLabel;html=1;align=center;verticalAlign=middle;resizable=0;points=[];" vertex="1" connectable="0" parent="GGz-ecKI_cakVM3Egm1I-23">
          <mxGeometry x="-0.1365" y="3" relative="1" as="geometry">
            <mxPoint x="48" as="offset" />
          </mxGeometry>
        </mxCell>
        <mxCell id="GGz-ecKI_cakVM3Egm1I-26" style="edgeStyle=none;rounded=0;orthogonalLoop=1;jettySize=auto;html=1;entryX=0;entryY=0.5;entryDx=0;entryDy=0;" edge="1" parent="1" source="GGz-ecKI_cakVM3Egm1I-1" target="GGz-ecKI_cakVM3Egm1I-10">
          <mxGeometry relative="1" as="geometry">
            <mxPoint x="85" y="200" as="targetPoint" />
            <Array as="points">
              <mxPoint x="45" y="200" />
            </Array>
          </mxGeometry>
        </mxCell>
        <mxCell id="GGz-ecKI_cakVM3Egm1I-37" value="Zapnutie prehliadača" style="edgeLabel;html=1;align=center;verticalAlign=middle;resizable=0;points=[];" vertex="1" connectable="0" parent="GGz-ecKI_cakVM3Egm1I-26">
          <mxGeometry x="-0.3131" relative="1" as="geometry">
            <mxPoint x="55" y="10" as="offset" />
          </mxGeometry>
        </mxCell>
        <mxCell id="GGz-ecKI_cakVM3Egm1I-1" value="" style="shape=umlActor;verticalLabelPosition=bottom;verticalAlign=top;html=1;outlineConnect=0;" vertex="1" parent="1">
          <mxGeometry x="30" y="20" width="30" height="60" as="geometry" />
        </mxCell>
        <mxCell id="GGz-ecKI_cakVM3Egm1I-3" value="" style="html=1;" edge="1" parent="1">
          <mxGeometry width="100" relative="1" as="geometry">
            <mxPoint x="160" y="200" as="sourcePoint" />
            <mxPoint x="160" y="200" as="targetPoint" />
          </mxGeometry>
        </mxCell>
        <mxCell id="GGz-ecKI_cakVM3Egm1I-7" value="" style="group" vertex="1" connectable="0" parent="1">
          <mxGeometry x="670" y="170" width="120" height="60" as="geometry" />
        </mxCell>
        <mxCell id="GGz-ecKI_cakVM3Egm1I-5" value="" style="rounded=0;whiteSpace=wrap;html=1;" vertex="1" parent="GGz-ecKI_cakVM3Egm1I-7">
          <mxGeometry width="120" height="60" as="geometry" />
        </mxCell>
        <mxCell id="GGz-ecKI_cakVM3Egm1I-6" value="Systém segway" style="text;html=1;strokeColor=none;fillColor=none;align=center;verticalAlign=middle;whiteSpace=wrap;rounded=0;" vertex="1" parent="GGz-ecKI_cakVM3Egm1I-7">
          <mxGeometry x="40" y="20" width="40" height="20" as="geometry" />
        </mxCell>
        <mxCell id="GGz-ecKI_cakVM3Egm1I-16" style="edgeStyle=none;rounded=0;orthogonalLoop=1;jettySize=auto;html=1;entryX=1;entryY=0.75;entryDx=0;entryDy=0;" edge="1" parent="1" source="GGz-ecKI_cakVM3Egm1I-9" target="GGz-ecKI_cakVM3Egm1I-10">
          <mxGeometry relative="1" as="geometry">
            <mxPoint x="250" y="230" as="targetPoint" />
            <Array as="points">
              <mxPoint x="340" y="215" />
            </Array>
          </mxGeometry>
        </mxCell>
        <mxCell id="GGz-ecKI_cakVM3Egm1I-28" value="dáta" style="edgeLabel;html=1;align=center;verticalAlign=middle;resizable=0;points=[];" vertex="1" connectable="0" parent="GGz-ecKI_cakVM3Egm1I-16">
          <mxGeometry x="-0.1782" y="-1" relative="1" as="geometry">
            <mxPoint x="-18" as="offset" />
          </mxGeometry>
        </mxCell>
        <mxCell id="GGz-ecKI_cakVM3Egm1I-9" value="Server" style="rounded=0;whiteSpace=wrap;html=1;" vertex="1" parent="1">
          <mxGeometry x="340" y="170" width="120" height="60" as="geometry" />
        </mxCell>
        <mxCell id="GGz-ecKI_cakVM3Egm1I-19" style="edgeStyle=none;rounded=0;orthogonalLoop=1;jettySize=auto;html=1;exitX=1;exitY=0.25;exitDx=0;exitDy=0;entryX=0;entryY=0.25;entryDx=0;entryDy=0;" edge="1" parent="1" source="GGz-ecKI_cakVM3Egm1I-10" target="GGz-ecKI_cakVM3Egm1I-9">
          <mxGeometry relative="1" as="geometry" />
        </mxCell>
        <mxCell id="GGz-ecKI_cakVM3Egm1I-29" value="požiadanie o dáta" style="edgeLabel;html=1;align=center;verticalAlign=middle;resizable=0;points=[];" vertex="1" connectable="0" parent="GGz-ecKI_cakVM3Egm1I-19">
          <mxGeometry x="0.3782" y="-3" relative="1" as="geometry">
            <mxPoint x="-33" as="offset" />
          </mxGeometry>
        </mxCell>
        <mxCell id="GGz-ecKI_cakVM3Egm1I-10" value="Client" style="rounded=0;whiteSpace=wrap;html=1;" vertex="1" parent="1">
          <mxGeometry x="70" y="170" width="120" height="60" as="geometry" />
        </mxCell>
        <mxCell id="GGz-ecKI_cakVM3Egm1I-12" style="edgeStyle=none;rounded=0;orthogonalLoop=1;jettySize=auto;html=1;entryX=0.5;entryY=1;entryDx=0;entryDy=0;" edge="1" parent="1" source="GGz-ecKI_cakVM3Egm1I-11" target="GGz-ecKI_cakVM3Egm1I-9">
          <mxGeometry relative="1" as="geometry" />
        </mxCell>
        <mxCell id="GGz-ecKI_cakVM3Egm1I-15" value="Posielanie dát cez SPI" style="edgeLabel;html=1;align=center;verticalAlign=middle;resizable=0;points=[];" vertex="1" connectable="0" parent="GGz-ecKI_cakVM3Egm1I-12">
          <mxGeometry x="-0.345" y="-2" relative="1" as="geometry">
            <mxPoint as="offset" />
          </mxGeometry>
        </mxCell>
        <mxCell id="GGz-ecKI_cakVM3Egm1I-11" value="Arduino" style="rounded=0;whiteSpace=wrap;html=1;" vertex="1" parent="1">
          <mxGeometry x="340" y="310" width="120" height="60" as="geometry" />
        </mxCell>
        <mxCell id="GGz-ecKI_cakVM3Egm1I-13" style="edgeStyle=none;rounded=0;orthogonalLoop=1;jettySize=auto;html=1;entryX=1;entryY=0.5;entryDx=0;entryDy=0;" edge="1" parent="1" source="GGz-ecKI_cakVM3Egm1I-5" target="GGz-ecKI_cakVM3Egm1I-11">
          <mxGeometry relative="1" as="geometry">
            <Array as="points">
              <mxPoint x="730" y="340" />
            </Array>
          </mxGeometry>
        </mxCell>
        <mxCell id="GGz-ecKI_cakVM3Egm1I-14" value="Posielanie dát pomocou&amp;nbsp; nRF24L01+ modulu" style="edgeLabel;html=1;align=center;verticalAlign=middle;resizable=0;points=[];" vertex="1" connectable="0" parent="GGz-ecKI_cakVM3Egm1I-13">
          <mxGeometry x="-0.1042" y="1" relative="1" as="geometry">
            <mxPoint x="-70" y="-1" as="offset" />
          </mxGeometry>
        </mxCell>
        <mxCell id="GGz-ecKI_cakVM3Egm1I-35" value="Zadanie Sample period" style="endArrow=classic;html=1;" edge="1" parent="1">
          <mxGeometry x="-0.0769" width="50" height="50" relative="1" as="geometry">
            <mxPoint x="30" y="290" as="sourcePoint" />
            <mxPoint x="240" y="290" as="targetPoint" />
            <mxPoint as="offset" />
          </mxGeometry>
        </mxCell>
        <mxCell id="GGz-ecKI_cakVM3Egm1I-36" value="" style="endArrow=classic;html=1;" edge="1" parent="1">
          <mxGeometry width="50" height="50" relative="1" as="geometry">
            <mxPoint x="30" y="320" as="sourcePoint" />
            <mxPoint x="240" y="320" as="targetPoint" />
            <Array as="points">
              <mxPoint x="130" y="320" />
            </Array>
          </mxGeometry>
        </mxCell>
        <mxCell id="GGz-ecKI_cakVM3Egm1I-38" value="spustenie tlačidlom start" style="edgeLabel;html=1;align=center;verticalAlign=middle;resizable=0;points=[];" vertex="1" connectable="0" parent="GGz-ecKI_cakVM3Egm1I-36">
          <mxGeometry x="0.225" y="-1" relative="1" as="geometry">
            <mxPoint x="-29" as="offset" />
          </mxGeometry>
        </mxCell>
        <mxCell id="GGz-ecKI_cakVM3Egm1I-39" value="" style="endArrow=classic;html=1;" edge="1" parent="1">
          <mxGeometry width="50" height="50" relative="1" as="geometry">
            <mxPoint x="30" y="350" as="sourcePoint" />
            <mxPoint x="240" y="350" as="targetPoint" />
          </mxGeometry>
        </mxCell>
        <mxCell id="GGz-ecKI_cakVM3Egm1I-42" value="vypnutie tlačidlom stop" style="edgeLabel;html=1;align=center;verticalAlign=middle;resizable=0;points=[];" vertex="1" connectable="0" parent="GGz-ecKI_cakVM3Egm1I-39">
          <mxGeometry x="0.125" y="-3" relative="1" as="geometry">
            <mxPoint x="-18" y="-3" as="offset" />
          </mxGeometry>
        </mxCell>
        <mxCell id="GGz-ecKI_cakVM3Egm1I-46" value="" style="endArrow=classic;html=1;" edge="1" parent="1">
          <mxGeometry width="50" height="50" relative="1" as="geometry">
            <mxPoint x="30" y="380" as="sourcePoint" />
            <mxPoint x="240" y="380" as="targetPoint" />
          </mxGeometry>
        </mxCell>
        <mxCell id="GGz-ecKI_cakVM3Egm1I-47" value="Odpojenie od servera tlačidlom close" style="edgeLabel;html=1;align=center;verticalAlign=middle;resizable=0;points=[];" vertex="1" connectable="0" parent="GGz-ecKI_cakVM3Egm1I-46">
          <mxGeometry x="0.125" y="-3" relative="1" as="geometry">
            <mxPoint x="-18" y="-3" as="offset" />
          </mxGeometry>
        </mxCell>
        <mxCell id="GGz-ecKI_cakVM3Egm1I-51" value="" style="endArrow=classic;html=1;" edge="1" parent="1">
          <mxGeometry width="50" height="50" relative="1" as="geometry">
            <mxPoint x="240" y="410" as="sourcePoint" />
            <mxPoint x="30" y="410" as="targetPoint" />
          </mxGeometry>
        </mxCell>
        <mxCell id="GGz-ecKI_cakVM3Egm1I-52" value="Zobrazovanie dát" style="edgeLabel;html=1;align=center;verticalAlign=middle;resizable=0;points=[];" vertex="1" connectable="0" parent="GGz-ecKI_cakVM3Egm1I-51">
          <mxGeometry x="-0.2667" y="1" relative="1" as="geometry">
            <mxPoint x="-33" as="offset" />
          </mxGeometry>
        </mxCell>
        <mxCell id="GGz-ecKI_cakVM3Egm1I-53" value="" style="endArrow=classic;html=1;" edge="1" parent="1">
          <mxGeometry width="50" height="50" relative="1" as="geometry">
            <mxPoint x="240" y="440" as="sourcePoint" />
            <mxPoint x="30" y="440" as="targetPoint" />
          </mxGeometry>
        </mxCell>
        <mxCell id="GGz-ecKI_cakVM3Egm1I-54" value="Zobrazovanie grafu" style="edgeLabel;html=1;align=center;verticalAlign=middle;resizable=0;points=[];" vertex="1" connectable="0" parent="GGz-ecKI_cakVM3Egm1I-53">
          <mxGeometry x="-0.2667" y="1" relative="1" as="geometry">
            <mxPoint x="-33" as="offset" />
          </mxGeometry>
        </mxCell>
        <mxCell id="GGz-ecKI_cakVM3Egm1I-56" value="" style="endArrow=classic;html=1;" edge="1" parent="1">
          <mxGeometry width="50" height="50" relative="1" as="geometry">
            <mxPoint x="240" y="470" as="sourcePoint" />
            <mxPoint x="30" y="470" as="targetPoint" />
          </mxGeometry>
        </mxCell>
        <mxCell id="GGz-ecKI_cakVM3Egm1I-57" value="Zobrazovanie ukazovateľa" style="edgeLabel;html=1;align=center;verticalAlign=middle;resizable=0;points=[];" vertex="1" connectable="0" parent="GGz-ecKI_cakVM3Egm1I-56">
          <mxGeometry x="-0.2667" y="1" relative="1" as="geometry">
            <mxPoint x="-33" as="offset" />
          </mxGeometry>
        </mxCell>
        <mxCell id="GGz-ecKI_cakVM3Egm1I-59" value="" style="endArrow=none;html=1;entryX=0.75;entryY=1;entryDx=0;entryDy=0;" edge="1" parent="1" target="GGz-ecKI_cakVM3Egm1I-10">
          <mxGeometry width="50" height="50" relative="1" as="geometry">
            <mxPoint x="240" y="470" as="sourcePoint" />
            <mxPoint x="310" y="280" as="targetPoint" />
            <Array as="points">
              <mxPoint x="240" y="260" />
              <mxPoint x="160" y="260" />
            </Array>
          </mxGeometry>
        </mxCell>
        <mxCell id="GGz-ecKI_cakVM3Egm1I-60" value="" style="endArrow=none;html=1;" edge="1" parent="1" target="GGz-ecKI_cakVM3Egm1I-1">
          <mxGeometry width="50" height="50" relative="1" as="geometry">
            <mxPoint x="30" y="470" as="sourcePoint" />
            <mxPoint x="40" y="90" as="targetPoint" />
            <Array as="points">
              <mxPoint x="30" y="110" />
            </Array>
          </mxGeometry>
        </mxCell>
      </root>
    </mxGraphModel>
  </diagram>
</mxfile>
